<?xml version="1.0" encoding="utf-8"?>
<!-- Generator: Adobe Illustrator 19.1.0, SVG Export Plug-In . SVG Version: 6.00 Build 0)  -->
<svg version="1.1" id="Layer_1" xmlns="http://www.w3.org/2000/svg" xmlns:xlink="http://www.w3.org/1999/xlink" x="0px" y="0px"
	 viewBox="-402.5 282.2 229 49" style="enable-background:new -402.5 282.2 229 49;" xml:space="preserve">
<style type="text/css">
	.st0{fill:#462C6B;}
	.st1{fill:url(#SVGID_1_);}
	.st2{fill:#FEBF10;}
	.st3{fill:url(#SVGID_2_);}
	.st4{fill:url(#SVGID_3_);}
	.st5{fill:url(#SVGID_4_);}
	.st6{fill:url(#SVGID_5_);}
	.st7{fill:url(#SVGID_6_);}
	.st8{fill:url(#SVGID_7_);}
</style>
<g>
	<g>
		<g>
			<path class="st0" d="M-391.2,301.6v11.7h-4.8v-29.2h8.3c3.8,0,6.6,0.7,8.4,2.1c1.8,1.4,2.7,3.5,2.7,6.4c0,3.6-1.9,6.2-5.7,7.8
				l8.3,12.9h-5.4l-7-11.7C-386.4,301.6-391.2,301.6-391.2,301.6z M-391.2,297.7h3.3c2.2,0,3.8-0.4,4.8-1.2c1-0.8,1.5-2.1,1.5-3.7
				c0-1.7-0.5-2.8-1.6-3.6c-1.1-0.7-2.7-1.1-4.9-1.1h-3.1V297.7z"/>
			<path class="st0" d="M-360.7,313.7c-3.4,0-6.1-1-8.1-3c-1.9-2-2.9-4.8-2.9-8.3c0-3.6,0.9-6.4,2.7-8.5c1.8-2.1,4.3-3.1,7.4-3.1
				c2.9,0,5.2,0.9,6.9,2.7c1.7,1.8,2.5,4.2,2.5,7.3v2.5h-14.6c0.1,2.1,0.6,3.8,1.7,4.9c1.1,1.2,2.6,1.7,4.6,1.7
				c1.3,0,2.5-0.1,3.6-0.4c1.1-0.2,2.3-0.7,3.6-1.2v3.9c-1.1,0.5-2.3,0.9-3.5,1.2C-357.9,313.6-359.2,313.7-360.7,313.7z
				 M-361.6,294.3c-1.5,0-2.7,0.5-3.6,1.4s-1.4,2.3-1.6,4.1h10c0-1.8-0.5-3.2-1.3-4.1C-358.9,294.8-360.1,294.3-361.6,294.3z"/>
			<path class="st0" d="M-338.5,309.9c1.1,0,2.3-0.2,3.4-0.5v3.5c-0.5,0.2-1.2,0.4-2,0.6c-0.8,0.2-1.7,0.2-2.5,0.2
				c-4.4,0-6.7-2.3-6.7-7v-12h-3v-2.1l3.2-1.7l1.6-4.7h2.9v5h6.3v3.6h-6.3v11.8c0,1.1,0.3,2,0.8,2.5
				C-340.2,309.6-339.5,309.9-338.5,309.9z"/>
			<path class="st0" d="M-311.3,313.3h-4.7v-13.6c0-1.7-0.3-3-1-3.8c-0.7-0.8-1.8-1.3-3.3-1.3c-2,0-3.4,0.6-4.3,1.8
				c-0.9,1.2-1.4,3.2-1.4,5.9v11h-4.7v-31.1h4.7v7.9c0,1.3-0.1,2.6-0.2,4.1h0.3c0.6-1.1,1.5-1.9,2.7-2.5c1.1-0.6,2.5-0.9,4-0.9
				c5.4,0,8,2.7,8,8.1v14.4H-311.3z"/>
			<path class="st0" d="M-305,285.3c0-0.8,0.2-1.5,0.7-1.9c0.5-0.5,1.1-0.7,2-0.7c0.8,0,1.5,0.2,1.9,0.7c0.5,0.5,0.7,1.1,0.7,1.9
				c0,0.8-0.2,1.4-0.7,1.9s-1.1,0.7-1.9,0.7c-0.9,0-1.5-0.2-2-0.7C-304.8,286.8-305,286.1-305,285.3z M-300,313.3h-4.7v-22.1h4.7
				V313.3z"/>
			<path class="st0" d="M-273.9,313.3h-4.7v-13.6c0-1.7-0.3-3-1-3.8c-0.7-0.8-1.8-1.3-3.3-1.3c-2,0-3.4,0.6-4.4,1.8
				c-0.9,1.2-1.4,3.1-1.4,5.9v11h-4.7v-22.1h3.7l0.7,2.9h0.2c0.7-1.1,1.6-1.9,2.8-2.4c1.2-0.6,2.6-0.9,4.1-0.9c5.3,0,8,2.7,8,8.1
				C-273.9,298.9-273.9,313.3-273.9,313.3z"/>
			<path class="st0" d="M-262.8,301.6l2.7-3.3l6.7-7.1h5.4l-8.9,9.5l9.4,12.6h-5.5l-7.1-9.7l-2.6,2.1v7.6h-4.7v-31.1h4.7v15.2
				l-0.2,4.3h0.1V301.6z"/>
		</g>
		<g>
			<path d="M-312.3,326.9c0,1.1-0.4,1.9-1.2,2.5c-0.8,0.6-1.8,0.9-3.1,0.9c-1.6,0-2.7-0.2-3.6-0.5v-0.9c0.9,0.4,2.1,0.6,3.5,0.6
				c1,0,1.9-0.2,2.5-0.7c0.6-0.5,0.9-1.1,0.9-1.9c0-0.5-0.1-0.9-0.3-1.2c-0.2-0.3-0.5-0.6-1-0.9c-0.5-0.3-1.1-0.5-2-0.8
				c-1.3-0.4-2.2-0.9-2.7-1.4s-0.7-1.2-0.7-2.1s0.4-1.7,1.1-2.3c0.7-0.6,1.7-0.9,2.9-0.9s2.3,0.2,3.4,0.7l-0.4,0.7
				c-1.1-0.4-2.1-0.7-3-0.7c-0.9,0-1.7,0.2-2.2,0.7c-0.6,0.4-0.8,1-0.8,1.8c0,0.5,0.1,0.9,0.3,1.2s0.4,0.6,0.8,0.8
				c0.4,0.2,1.1,0.5,2,0.9c1,0.3,1.7,0.7,2.2,1c0.5,0.3,0.9,0.7,1.1,1.1C-312.4,325.9-312.3,326.3-312.3,326.9z"/>
			<path d="M-302,325.5c0,1.5-0.4,2.7-1.1,3.6s-1.8,1.3-3.1,1.3c-0.8,0-1.6-0.2-2.2-0.6s-1.1-1-1.5-1.7c-0.3-0.7-0.5-1.6-0.5-2.6
				c0-1.5,0.4-2.7,1.1-3.6c0.7-0.9,1.8-1.3,3.1-1.3c1.3,0,2.3,0.4,3.1,1.3C-302.4,322.7-302,323.9-302,325.5z M-309.5,325.5
				c0,1.3,0.3,2.3,0.9,3c0.6,0.7,1.4,1.1,2.4,1.1s1.8-0.4,2.4-1.1c0.6-0.7,0.9-1.7,0.9-3c0-1.3-0.3-2.3-0.9-3
				c-0.6-0.7-1.4-1.1-2.4-1.1s-1.8,0.4-2.4,1.1C-309.2,323.1-309.5,324.1-309.5,325.5z"/>
			<path d="M-298.6,330.2h-0.9v-13.5h0.9V330.2z"/>
			<path d="M-294.7,320.7v6.1c0,0.9,0.2,1.6,0.6,2.1c0.4,0.4,1,0.6,1.9,0.6c1.1,0,2-0.3,2.5-0.9s0.8-1.5,0.8-2.8v-5.2h0.9v9.6h-0.7
				l-0.2-1.3h-0.1c-0.6,1-1.7,1.5-3.3,1.5c-2.1,0-3.2-1.1-3.2-3.4v-6.2h0.8V320.7z"/>
			<path d="M-282.4,329.6c0.5,0,1,0,1.4-0.1v0.7c-0.4,0.1-0.9,0.2-1.4,0.2c-0.8,0-1.4-0.2-1.8-0.7c-0.4-0.4-0.6-1.1-0.6-2.1v-6.1
				h-1.4V321l1.4-0.4l0.4-2.1h0.4v2.3h2.8v0.7h-2.8v6c0,0.7,0.1,1.3,0.4,1.6C-283.4,329.4-283,329.6-282.4,329.6z"/>
			<path d="M-279.1,318.1c0-0.6,0.2-0.8,0.5-0.8c0.2,0,0.3,0.1,0.4,0.2c0.1,0.1,0.2,0.4,0.2,0.6c0,0.3-0.1,0.5-0.2,0.6
				c-0.1,0.2-0.2,0.2-0.4,0.2C-278.9,319-279.1,318.7-279.1,318.1z M-278.1,330.2h-0.9v-9.4h0.9V330.2z"/>
			<path d="M-267.1,325.5c0,1.5-0.4,2.7-1.1,3.6s-1.8,1.3-3.1,1.3c-0.8,0-1.6-0.2-2.2-0.6c-0.6-0.4-1.1-1-1.5-1.7
				c-0.3-0.7-0.5-1.6-0.5-2.6c0-1.5,0.4-2.7,1.1-3.6c0.7-0.9,1.8-1.3,3.1-1.3c1.3,0,2.3,0.4,3.1,1.3
				C-267.5,322.7-267.1,323.9-267.1,325.5z M-274.6,325.5c0,1.3,0.3,2.3,0.9,3c0.6,0.7,1.4,1.1,2.4,1.1s1.8-0.4,2.4-1.1
				c0.6-0.7,0.9-1.7,0.9-3c0-1.3-0.3-2.3-0.9-3c-0.6-0.7-1.4-1.1-2.4-1.1s-1.8,0.4-2.4,1.1C-274.3,323.1-274.6,324.1-274.6,325.5z"
				/>
			<path d="M-257.9,330.2v-6.1c0-0.9-0.2-1.6-0.6-2.1c-0.4-0.4-1-0.6-1.9-0.6c-1.1,0-2,0.3-2.5,0.9s-0.8,1.5-0.8,2.8v5.1h-0.9v-9.4
				h0.7l0.2,1.3h0.1c0.6-1,1.7-1.5,3.3-1.5c2.1,0,3.2,1.1,3.2,3.4v6.2H-257.9z"/>
			<path d="M-248.2,327.7c0,0.8-0.3,1.5-1,2c-0.6,0.5-1.6,0.7-2.7,0.7c-1.3,0-2.3-0.2-3-0.6v-0.9c0.9,0.5,2,0.7,3,0.7
				c0.9,0,1.6-0.2,2.1-0.5c0.5-0.3,0.7-0.7,0.7-1.2s-0.2-0.9-0.6-1.2c-0.4-0.3-1-0.6-1.9-1c-0.9-0.3-1.6-0.6-2-0.9
				c-0.4-0.2-0.7-0.5-0.9-0.8c-0.2-0.3-0.3-0.7-0.3-1.1c0-0.7,0.3-1.3,0.9-1.7s1.4-0.6,2.5-0.6c1,0,2,0.2,2.9,0.6l-0.3,0.8
				c-0.9-0.4-1.8-0.6-2.6-0.6c-0.8,0-1.4,0.1-1.8,0.4c-0.5,0.3-0.7,0.6-0.7,1.1s0.2,0.9,0.5,1.2c0.4,0.3,1,0.6,2.1,1
				c0.9,0.3,1.5,0.6,1.9,0.8c0.4,0.2,0.7,0.5,0.9,0.8C-248.3,326.9-248.2,327.3-248.2,327.7z"/>
		</g>
		<g>
			<g>
				<g>
					
						<linearGradient id="SVGID_1_" gradientUnits="userSpaceOnUse" x1="-213.7733" y1="275.8096" x2="-194.3039" y2="310.0416" gradientTransform="matrix(1 0 0 -1 0 615.6)">
						<stop  offset="0" style="stop-color:#1C3664"/>
						<stop  offset="0.935" style="stop-color:#0CB2E2"/>
					</linearGradient>
					<path class="st1" d="M-204.6,306.1l-6.6,11.7c0,0,3.2,3.6,4.9,5.3c1.7,1.7,6.4,5.9,9.9,2.2c1.3-1.3,2.6-3.2,3.7-5
						c-3-3.6-6.3-7.5-9.3-11C-202.8,308.2-203.7,307.1-204.6,306.1z"/>
				</g>
				<g>
					<path d="M-220.7,290.2L-220.7,290.2L-220.7,290.2z"/>
					<path class="st2" d="M-208.7,301c1.3,1.6,2.7,3.3,4.1,5.1c0.9,1.1,1.8,2.1,2.7,3.2c3,3.6,6.3,7.5,9.3,11c2,2.4,3.9,4.6,5.4,6.4
						c1.7,2,4.9,0.9,5-1.6c0.4-5.8,0.9-12.7,1.1-15.7c0.1-1-0.3-2.1-0.9-2.9l-12.8-15.3c-0.4-0.4-0.9-0.7-1.4-0.7l-21-0.3h-3.4l0,0
						C-217.6,290.3-213.8,294.8-208.7,301z"/>
				</g>
			</g>
			<g>
				<g>
					<path class="st0" d="M-225,326.5l25.5,0.3c-4.5-0.2-9.5-6.4-15.7-14c-1.3-1.6-2.7-3.3-4.1-4.9c-2.6-3.1-5.4-6.4-8-9.5
						c-1.7-2.1-3.4-4-4.9-5.8c-2.3-2.7-6.8-1.3-7,2.3l-1,13.7c0,0.5,0.1,1.1,0.5,1.5l13.4,15.9C-226,326.3-225.5,326.5-225,326.5z"
						/>
				</g>
			</g>
		</g>
	</g>
	<g>
		<g>
			
				<linearGradient id="SVGID_2_" gradientUnits="userSpaceOnUse" x1="-198.0723" y1="302.276" x2="-211.4028" y2="288.9455" gradientTransform="matrix(1 0 0 -1 0 615.6)">
				<stop  offset="0" style="stop-color:#00B0DF"/>
				<stop  offset="1" style="stop-color:#052460"/>
			</linearGradient>
			<path class="st3" d="M-204.6,306.1l-6.5,11.6c0,0,3.1,3.7,4.9,5.4c1.7,1.7,6.4,5.9,9.9,2.2c1.3-1.3,2.6-3.2,3.7-5
				c-3-3.6-6.3-7.5-9.3-11C-202.8,308.2-203.7,307.1-204.6,306.1z"/>
		</g>
		<g>
			
				<linearGradient id="SVGID_3_" gradientUnits="userSpaceOnUse" x1="-198.7716" y1="301.6884" x2="-207.3371" y2="292.5362" gradientTransform="matrix(1 0 0 -1 0 615.6)">
				<stop  offset="0" style="stop-color:#00B0DF"/>
				<stop  offset="1" style="stop-color:#00B0DF;stop-opacity:0"/>
			</linearGradient>
			<path class="st4" d="M-204.6,306.1l-6.5,11.6c0,0,3.1,3.7,4.9,5.4c1.7,1.7,6.4,5.9,9.9,2.2c1.3-1.3,2.6-3.2,3.7-5
				c-3-3.6-6.3-7.5-9.3-11C-202.8,308.2-203.7,307.1-204.6,306.1z"/>
		</g>
		<g>
			
				<linearGradient id="SVGID_4_" gradientUnits="userSpaceOnUse" x1="-210.8314" y1="288.4696" x2="-198.4873" y2="302.0481" gradientTransform="matrix(1 0 0 -1 0 615.6)">
				<stop  offset="0" style="stop-color:#052460"/>
				<stop  offset="1" style="stop-color:#052460;stop-opacity:0"/>
			</linearGradient>
			<path class="st5" d="M-204.6,306.1l-6.5,11.6c0,0,3.1,3.7,4.9,5.4c1.7,1.7,6.4,5.9,9.9,2.2c1.3-1.3,2.6-3.2,3.7-5
				c-3-3.6-6.3-7.5-9.3-11C-202.8,308.2-203.7,307.1-204.6,306.1z"/>
		</g>
	</g>
	<g>
		
			<linearGradient id="SVGID_5_" gradientUnits="userSpaceOnUse" x1="-213.3444" y1="320.0132" x2="-221.5097" y2="310.7445" gradientTransform="matrix(1 0 0 -1 0 615.6)">
			<stop  offset="0" style="stop-color:#F57E25"/>
			<stop  offset="1" style="stop-color:#FFCF01"/>
		</linearGradient>
		<path class="st6" d="M-215.2,312.8l6.4-11.8c-5-6.2-8.9-10.7-12-10.7c-0.7,0.1-1.3,0.3-1.7,0.6c-1.5,1.5-3.3,4.5-4.9,7.5
			c2.6,3.1,5.4,6.4,8,9.5C-217.9,309.5-216.5,311.2-215.2,312.8z"/>
	</g>
	<g>
		
			<linearGradient id="SVGID_6_" gradientUnits="userSpaceOnUse" x1="-213.3444" y1="320.0132" x2="-221.5097" y2="310.7445" gradientTransform="matrix(1 0 0 -1 0 615.6)">
			<stop  offset="0" style="stop-color:#F57E25"/>
			<stop  offset="1" style="stop-color:#F57E25;stop-opacity:0"/>
		</linearGradient>
		<path class="st7" d="M-215.2,312.8l6.4-11.8c-5-6.2-8.9-10.7-12-10.7c-0.7,0.1-1.3,0.3-1.7,0.6c-1.5,1.5-3.3,4.5-4.9,7.5
			c2.6,3.1,5.4,6.4,8,9.5C-217.9,309.5-216.5,311.2-215.2,312.8z"/>
	</g>
	<g>
		
			<linearGradient id="SVGID_7_" gradientUnits="userSpaceOnUse" x1="-221.662" y1="310.427" x2="-213.952" y2="319.6153" gradientTransform="matrix(1 0 0 -1 0 615.6)">
			<stop  offset="0" style="stop-color:#FFCF01"/>
			<stop  offset="1" style="stop-color:#FFCF01;stop-opacity:0"/>
		</linearGradient>
		<path class="st8" d="M-215.2,312.8l6.4-11.8c-5-6.2-8.9-10.7-12-10.7c-0.7,0.1-1.3,0.3-1.7,0.6c-1.5,1.5-3.3,4.5-4.9,7.5
			c2.6,3.1,5.4,6.4,8,9.5C-217.9,309.5-216.5,311.2-215.2,312.8z"/>
	</g>
</g>
</svg>
